# xmcd CD database file
#
# Track frame offsets:
#	150
#	34558
#	48720
#	59318
#	74338
#	89902
#	106381
#	121401
#	139853
#	155574
#	172044
#
# Disc length: 2571 seconds
#
# Revision: 0
# Processed by: cddbd v1.4PL0 Copyright (c) Steve Scherf et al.
# Submitted via: CDex 1.50beta9
#
DISCID=a30a090b
DTITLE=Joan Baez - Farewell Angelina
DYEAR=1987
DGENRE=Country
TTITLE0=Farewell Angelina
TTITLE1=Daddy you benn on my mind
TTITLE2=It's all over now baby blue
TTITLE3=The wild mountain thyme
TTITLE4=Ranger's command
TTITLE5=Colours
TTITLE6=Satisfied mind
TTITLE7=The river in the pines
TTITLE8=Pauvre Ruteboeuf
TTITLE9=Sagt mir wo die blumen sind
TTITLE10=A hard rain's a-gonna fall
EXTD=YEAR: 1987
EXTT0=
EXTT1=
EXTT2=
EXTT3=
EXTT4=
EXTT5=
EXTT6=
EXTT7=
EXTT8=
EXTT9=
EXTT10=
PLAYORDER=
